<svg width="394" height="255" viewBox="0 0 394 255" fill="none" xmlns="http://www.w3.org/2000/svg">
<path opacity="0.2" d="M67.0057 90.4997C4.33926 101.579 -9.20424 168.3 8.00572 203.5C114.839 239.333 339.106 291.4 381.506 213C423.906 134.6 339.839 101.333 292.506 94.5C292.506 22.9 226.173 31.6666 193.006 45C132.206 3.39997 83.6724 57.9998 67.0057 90.4997Z" fill="#FFDA27" stroke="#FFDA27"/>
<path opacity="0.8" d="M31.6415 172C-9.95851 160 -0.358513 199 9.64149 220H108.642C136.642 220 237.642 214 217.642 161.5C201.642 119.5 148.975 137 124.642 151C96.6416 101.8 50.9749 144.5 31.6415 172Z" fill="#FFDA27"/>
<path fill-rule="evenodd" clip-rule="evenodd" d="M48.5059 30.7345C48.5059 27.5909 51.2709 25.0483 54.697 25.0483H270.03C273.449 25.0483 276.221 27.5926 276.221 30.7345V166.22C276.221 169.364 273.456 171.906 270.03 171.906H54.697C51.2772 171.906 48.5059 169.362 48.5059 166.22V30.7345Z" fill="#011E41" stroke="#1C355E" stroke-width="2.08143"/>
<path fill-rule="evenodd" clip-rule="evenodd" d="M62.4341 40.0809C62.4341 38.7348 63.6261 37.6421 65.0889 37.6421H259.417C260.885 37.6421 262.071 38.7286 262.071 40.0809V141.031C262.071 142.377 260.879 143.469 259.417 143.469H65.0889C63.6208 143.469 62.4341 142.383 62.4341 141.031V40.0809Z" fill="#E6ECF8" stroke="#1C355E" stroke-width="2.08143"/>
<path fill-rule="evenodd" clip-rule="evenodd" d="M146.147 171.906H178.8L181.004 198.109H143.942L146.147 171.906Z" fill="#011E41" stroke="#1C355E" stroke-width="2.08143"/>
<path fill-rule="evenodd" clip-rule="evenodd" d="M130.306 203.799V201.055C130.306 199.431 131.741 198.109 133.507 198.109H191.441C193.204 198.109 194.642 199.431 194.642 201.055V203.799C194.642 203.913 194.546 204 194.42 204H130.528C130.404 204 130.306 203.91 130.306 203.799Z" fill="#011E41" stroke="#1C355E" stroke-width="2.08143"/>
<path d="M162.474 162.563C164.733 162.563 166.564 160.881 166.564 158.805C166.564 156.73 164.733 155.047 162.474 155.047C160.215 155.047 158.384 156.73 158.384 158.805C158.384 160.881 160.215 162.563 162.474 162.563Z" stroke="#1C355E" stroke-width="2.08143"/>
<path d="M329.223 2H296.055C293.127 2 290.752 4.1826 290.752 6.87496V75.9369C290.752 78.6292 293.127 80.8118 296.055 80.8118H329.223C332.152 80.8118 334.526 78.6292 334.526 75.9369V6.87496C334.526 4.1826 332.152 2 329.223 2Z" fill="#011E41" stroke="#1C355E" stroke-width="2.08143"/>
<path fill-rule="evenodd" clip-rule="evenodd" d="M290.752 10.7344H334.526V69.0917H290.752V10.7344Z" fill="#E6ECF8" stroke="#1C355E" stroke-width="2.08143"/>
<path d="M322.367 5.45312H303.132C302.644 5.45312 302.248 5.81689 302.248 6.26561C302.248 6.71434 302.644 7.07812 303.132 7.07812H322.367C322.855 7.07812 323.251 6.71434 323.251 6.26561C323.251 5.81689 322.855 5.45312 322.367 5.45312Z" fill="#1C355E"/>
<path d="M312.729 72.4839H312.726C311.335 72.4839 310.208 73.5206 310.208 74.7995C310.208 76.0784 311.335 77.1151 312.726 77.1151H312.729C314.121 77.1151 315.248 76.0784 315.248 74.7995C315.248 73.5206 314.121 72.4839 312.729 72.4839Z" fill="#1C355E"/>
<path d="M303.133 42.8278C304.965 42.8278 306.449 41.4637 306.449 39.781C306.449 38.0983 304.965 36.7341 303.133 36.7341C301.302 36.7341 299.817 38.0983 299.817 39.781C299.817 41.4637 301.302 42.8278 303.133 42.8278Z" fill="#E6ECF8" stroke="#FFDA27" stroke-width="2.08143"/>
<path d="M325.463 34.4998H311.754C311.266 34.4998 310.871 34.8635 310.871 35.3122C310.871 35.761 311.266 36.1247 311.754 36.1247H325.463C325.951 36.1247 326.346 35.761 326.346 35.3122C326.346 34.8635 325.951 34.4998 325.463 34.4998Z" fill="#3D7DCA"/>
<path d="M321.041 38.9685H311.754C311.266 38.9685 310.871 39.3323 310.871 39.781C310.871 40.2297 311.266 40.5935 311.754 40.5935H321.041C321.529 40.5935 321.925 40.2297 321.925 39.781C321.925 39.3323 321.529 38.9685 321.041 38.9685Z" fill="#3D7DCA"/>
<path d="M316.619 43.4373H311.754C311.266 43.4373 310.871 43.801 310.871 44.2497C310.871 44.6985 311.266 45.0622 311.754 45.0622H316.619C317.107 45.0622 317.503 44.6985 317.503 44.2497C317.503 43.801 317.107 43.4373 316.619 43.4373Z" fill="#3D7DCA"/>
<path fill-rule="evenodd" clip-rule="evenodd" d="M79.3037 19.9634H181.443V109.947C181.443 113.087 178.667 115.634 175.252 115.634H85.4954C82.0773 115.634 79.3037 113.086 79.3037 109.947V19.9634Z" fill="#E6ECF8" stroke="#1C355E" stroke-width="2.08143"/>
<path fill-rule="evenodd" clip-rule="evenodd" d="M79.3042 15.4895C79.3042 12.3525 82.0806 9.80713 85.4959 9.80713H175.252C178.672 9.80713 181.444 12.3498 181.444 15.4895V21.5883H79.3042V15.4895Z" fill="#011E41" stroke="#1C355E" stroke-width="2.08143"/>
<path d="M88.8096 17.5258C89.9085 17.5258 90.7993 16.7074 90.7993 15.6977C90.7993 14.6881 89.9085 13.8696 88.8096 13.8696C87.7107 13.8696 86.8198 14.6881 86.8198 15.6977C86.8198 16.7074 87.7107 17.5258 88.8096 17.5258Z" fill="#FFDA27"/>
<path d="M95.4424 17.5258C96.5413 17.5258 97.4321 16.7074 97.4321 15.6977C97.4321 14.6881 96.5413 13.8696 95.4424 13.8696C94.3435 13.8696 93.4526 14.6881 93.4526 15.6977C93.4526 16.7074 94.3435 17.5258 95.4424 17.5258Z" fill="#1C355E"/>
<path d="M102.075 17.5258C103.174 17.5258 104.064 16.7074 104.064 15.6977C104.064 14.6881 103.174 13.8696 102.075 13.8696C100.976 13.8696 100.085 14.6881 100.085 15.6977C100.085 16.7074 100.976 17.5258 102.075 17.5258Z" fill="#1C355E"/>
<path d="M94.7798 79.2754H92.5678C92.0798 79.2754 91.6841 79.6392 91.6841 80.0879C91.6841 80.5366 92.0798 80.9004 92.5678 80.9004H94.7798C95.2679 80.9004 95.6636 80.5366 95.6636 80.0879C95.6636 79.6392 95.2679 79.2754 94.7798 79.2754Z" fill="#3D7DCA"/>
<path d="M94.7798 38.6504H92.5678C92.0798 38.6504 91.6841 39.0142 91.6841 39.4629C91.6841 39.9116 92.0798 40.2754 92.5678 40.2754H94.7798C95.2679 40.2754 95.6636 39.9116 95.6636 39.4629C95.6636 39.0142 95.2679 38.6504 94.7798 38.6504Z" fill="#3D7DCA"/>
<path fill-rule="evenodd" clip-rule="evenodd" d="M99.2002 38.6504H105.171C105.659 38.6504 106.054 39.0142 106.054 39.4629C106.054 39.9116 105.659 40.2754 105.171 40.2754H99.2002C98.7121 40.2754 98.3164 39.9116 98.3164 39.4629C98.3164 39.0142 98.7121 38.6504 99.2002 38.6504Z" fill="#3D7DCA"/>
<path fill-rule="evenodd" clip-rule="evenodd" d="M109.149 38.6504H115.119C115.607 38.6504 116.003 39.0142 116.003 39.4629C116.003 39.9116 115.607 40.2754 115.119 40.2754H109.149C108.661 40.2754 108.265 39.9116 108.265 39.4629C108.265 39.0142 108.661 38.6504 109.149 38.6504Z" fill="#3D7DCA"/>
<path fill-rule="evenodd" clip-rule="evenodd" d="M119.098 38.6504H130.153C130.641 38.6504 131.037 39.0142 131.037 39.4629C131.037 39.9116 130.641 40.2754 130.153 40.2754H119.098C118.61 40.2754 118.214 39.9116 118.214 39.4629C118.214 39.0142 118.61 38.6504 119.098 38.6504Z" fill="#3D7DCA"/>
<path fill-rule="evenodd" clip-rule="evenodd" d="M134.131 38.6504H150.493C150.981 38.6504 151.376 39.0142 151.376 39.4629C151.376 39.9116 150.981 40.2754 150.493 40.2754H134.131C133.643 40.2754 133.248 39.9116 133.248 39.4629C133.248 39.0142 133.643 38.6504 134.131 38.6504Z" fill="#3D7DCA"/>
<path d="M94.7798 46.7754H92.5678C92.0798 46.7754 91.6841 47.1392 91.6841 47.5879C91.6841 48.0366 92.0798 48.4004 92.5678 48.4004H94.7798C95.2679 48.4004 95.6636 48.0366 95.6636 47.5879C95.6636 47.1392 95.2679 46.7754 94.7798 46.7754Z" fill="#3D7DCA"/>
<path d="M94.7798 54.9004H92.5678C92.0798 54.9004 91.6841 55.2642 91.6841 55.7129C91.6841 56.1616 92.0798 56.5254 92.5678 56.5254H94.7798C95.2679 56.5254 95.6636 56.1616 95.6636 55.7129C95.6636 55.2642 95.2679 54.9004 94.7798 54.9004Z" fill="#3D7DCA"/>
<path d="M94.7798 63.0254H92.5678C92.0798 63.0254 91.6841 63.3892 91.6841 63.8379C91.6841 64.2866 92.0798 64.6504 92.5678 64.6504H94.7798C95.2679 64.6504 95.6636 64.2866 95.6636 63.8379C95.6636 63.3892 95.2679 63.0254 94.7798 63.0254Z" fill="#3D7DCA"/>
<path d="M94.7798 71.1504H92.5678C92.0798 71.1504 91.6841 71.5142 91.6841 71.9629C91.6841 72.4116 92.0798 72.7754 92.5678 72.7754H94.7798C95.2679 72.7754 95.6636 72.4116 95.6636 71.9629C95.6636 71.5142 95.2679 71.1504 94.7798 71.1504Z" fill="#3D7DCA"/>
<path d="M94.7798 87.4001H92.5678C92.0798 87.4001 91.6841 87.7639 91.6841 88.2126C91.6841 88.6614 92.0798 89.0251 92.5678 89.0251H94.7798C95.2679 89.0251 95.6636 88.6614 95.6636 88.2126C95.6636 87.7639 95.2679 87.4001 94.7798 87.4001Z" fill="#3D7DCA"/>
<path d="M94.7798 95.5251H92.5678C92.0798 95.5251 91.6841 95.8889 91.6841 96.3376C91.6841 96.7864 92.0798 97.1501 92.5678 97.1501H94.7798C95.2679 97.1501 95.6636 96.7864 95.6636 96.3376C95.6636 95.8889 95.2679 95.5251 94.7798 95.5251Z" fill="#3D7DCA"/>
<path d="M112.908 46.7754H99.2002C98.7121 46.7754 98.3164 47.1392 98.3164 47.5879C98.3164 48.0366 98.7121 48.4004 99.2002 48.4004H112.908C113.397 48.4004 113.792 48.0366 113.792 47.5879C113.792 47.1392 113.397 46.7754 112.908 46.7754Z" fill="#3D7DCA"/>
<path d="M141.649 46.7754H116.887C116.399 46.7754 116.003 47.1392 116.003 47.5879C116.003 48.0366 116.399 48.4004 116.887 48.4004H141.649C142.137 48.4004 142.533 48.0366 142.533 47.5879C142.533 47.1392 142.137 46.7754 141.649 46.7754Z" fill="#3D7DCA"/>
<path d="M154.914 46.7754H145.627C145.139 46.7754 144.744 47.1392 144.744 47.5879C144.744 48.0366 145.139 48.4004 145.627 48.4004H154.914C155.402 48.4004 155.798 48.0366 155.798 47.5879C155.798 47.1392 155.402 46.7754 154.914 46.7754Z" fill="#3D7DCA"/>
<path d="M108.487 54.9004H99.2002C98.7121 54.9004 98.3164 55.2642 98.3164 55.7129C98.3164 56.1616 98.7121 56.5254 99.2002 56.5254H108.487C108.975 56.5254 109.371 56.1616 109.371 55.7129C109.371 55.2642 108.975 54.9004 108.487 54.9004Z" fill="#3D7DCA"/>
<path d="M121.752 54.9004H112.465C111.977 54.9004 111.582 55.2642 111.582 55.7129C111.582 56.1616 111.977 56.5254 112.465 56.5254H121.752C122.24 56.5254 122.636 56.1616 122.636 55.7129C122.636 55.2642 122.24 54.9004 121.752 54.9004Z" fill="#3D7DCA"/>
<path d="M130.595 54.9004H125.73C125.242 54.9004 124.847 55.2642 124.847 55.7129C124.847 56.1616 125.242 56.5254 125.73 56.5254H130.595C131.083 56.5254 131.479 56.1616 131.479 55.7129C131.479 55.2642 131.083 54.9004 130.595 54.9004Z" fill="#3D7DCA"/>
<path d="M119.541 63.0254H99.2002C98.7121 63.0254 98.3164 63.3892 98.3164 63.8379C98.3164 64.2866 98.7121 64.6504 99.2002 64.6504H119.541C120.029 64.6504 120.425 64.2866 120.425 63.8379C120.425 63.3892 120.029 63.0254 119.541 63.0254Z" fill="#3D7DCA"/>
<path d="M137.228 63.0254H123.52C123.031 63.0254 122.636 63.3892 122.636 63.8379C122.636 64.2866 123.031 64.6504 123.52 64.6504H137.228C137.716 64.6504 138.112 64.2866 138.112 63.8379C138.112 63.3892 137.716 63.0254 137.228 63.0254Z" fill="#3D7DCA"/>
<path d="M119.541 71.1504H99.2002C98.7121 71.1504 98.3164 71.5142 98.3164 71.9629C98.3164 72.4116 98.7121 72.7754 99.2002 72.7754H119.541C120.029 72.7754 120.425 72.4116 120.425 71.9629C120.425 71.5142 120.029 71.1504 119.541 71.1504Z" fill="#3D7DCA"/>
<path d="M150.493 71.1504H123.52C123.031 71.1504 122.636 71.5142 122.636 71.9629C122.636 72.4116 123.031 72.7754 123.52 72.7754H150.493C150.981 72.7754 151.377 72.4116 151.377 71.9629C151.377 71.5142 150.981 71.1504 150.493 71.1504Z" fill="#3D7DCA"/>
<path d="M112.908 79.2754H99.2002C98.7121 79.2754 98.3164 79.6392 98.3164 80.0879C98.3164 80.5366 98.7121 80.9004 99.2002 80.9004H112.908C113.397 80.9004 113.792 80.5366 113.792 80.0879C113.792 79.6392 113.397 79.2754 112.908 79.2754Z" fill="#3D7DCA"/>
<path d="M130.595 79.2754H116.887C116.399 79.2754 116.003 79.6392 116.003 80.0879C116.003 80.5366 116.399 80.9004 116.887 80.9004H130.595C131.083 80.9004 131.479 80.5366 131.479 80.0879C131.479 79.6392 131.083 79.2754 130.595 79.2754Z" fill="#3D7DCA"/>
<path d="M141.65 79.2754H134.574C134.086 79.2754 133.69 79.6392 133.69 80.0879C133.69 80.5366 134.086 80.9004 134.574 80.9004H141.65C142.138 80.9004 142.533 80.5366 142.533 80.0879C142.533 79.6392 142.138 79.2754 141.65 79.2754Z" fill="#3D7DCA"/>
<path d="M126.173 87.4001H99.2002C98.7121 87.4001 98.3164 87.7639 98.3164 88.2126C98.3164 88.6614 98.7121 89.0251 99.2002 89.0251H126.173C126.662 89.0251 127.057 88.6614 127.057 88.2126C127.057 87.7639 126.662 87.4001 126.173 87.4001Z" fill="#3D7DCA"/>
<path d="M110.698 95.5251H99.2002C98.7121 95.5251 98.3164 95.8889 98.3164 96.3376C98.3164 96.7864 98.7121 97.1501 99.2002 97.1501H110.698C111.186 97.1501 111.581 96.7864 111.581 96.3376C111.581 95.8889 111.186 95.5251 110.698 95.5251Z" fill="#3D7DCA"/>
<path d="M227.851 64.5011C226.766 63.6149 225.681 62.7287 224.596 61.8424C222.867 60.4317 221.143 59.0165 219.414 57.6057C219.018 57.2847 218.622 56.9591 218.23 56.6381C218.23 57.0631 218.23 57.4927 218.23 57.9177C219.315 57.0315 220.4 56.1453 221.485 55.259C223.214 53.8483 224.938 52.433 226.667 51.0223C227.064 50.7013 227.46 50.3757 227.851 50.0547C228.238 49.7382 228.233 49.0916 227.851 48.7751C227.44 48.4269 226.865 48.436 226.449 48.7751C225.364 49.6613 224.279 50.5475 223.194 51.4338C221.465 52.8445 219.741 54.2598 218.012 55.6705C217.616 55.9915 217.219 56.3171 216.828 56.6381C216.447 56.9501 216.447 57.6057 216.828 57.9177C217.913 58.8039 218.998 59.6902 220.083 60.5764C221.812 61.9871 223.536 63.4024 225.265 64.8131C225.662 65.1342 226.058 65.4597 226.449 65.7807C226.836 66.0973 227.475 66.156 227.851 65.7807C228.198 65.4371 228.263 64.8403 227.851 64.5011Z" fill="#1C355E"/>
<path d="M244.373 50.0568C245.458 50.9431 246.543 51.8293 247.628 52.7155C249.357 54.1263 251.081 55.5415 252.81 56.9522C253.206 57.2733 253.603 57.5988 253.994 57.9199C253.994 57.4948 253.994 57.0653 253.994 56.6403C252.909 57.5265 251.824 58.4127 250.739 59.2989C249.01 60.7097 247.286 62.1249 245.557 63.5357C245.161 63.8567 244.764 64.1822 244.373 64.5033C243.986 64.8198 243.991 65.4664 244.373 65.7829C244.784 66.131 245.359 66.122 245.775 65.7829C246.86 64.8967 247.945 64.0104 249.03 63.1242C250.759 61.7135 252.483 60.2982 254.212 58.8875C254.608 58.5664 255.005 58.2409 255.396 57.9199C255.778 57.6079 255.778 56.9522 255.396 56.6403C254.311 55.754 253.226 54.8678 252.141 53.9816C250.412 52.5708 248.688 51.1556 246.959 49.7448C246.563 49.4238 246.166 49.0983 245.775 48.7772C245.389 48.4607 244.749 48.4019 244.373 48.7772C244.026 49.1209 243.962 49.7177 244.373 50.0568Z" fill="#1C355E"/>
<path d="M232.579 69.8262C232.876 69.0123 233.168 68.1984 233.466 67.38C234.174 65.4221 234.883 63.4688 235.591 61.511C236.443 59.1507 237.295 56.795 238.152 54.4347C238.891 52.3955 239.629 50.3562 240.367 48.317C240.719 47.3268 241.115 46.3411 241.442 45.3373C241.447 45.3237 241.452 45.3102 241.457 45.2966C241.62 44.849 241.269 44.2883 240.763 44.1843C240.218 44.0713 239.718 44.3335 239.545 44.8173C239.247 45.6312 238.955 46.4451 238.658 47.2635C237.949 49.2213 237.241 51.1746 236.532 53.1325C235.68 55.4928 234.828 57.8485 233.971 60.2088C233.233 62.248 232.495 64.2872 231.756 66.3265C231.405 67.3122 231.008 68.2979 230.681 69.3017C230.676 69.3152 230.671 69.3288 230.666 69.3424C230.503 69.79 230.855 70.3507 231.36 70.4547C231.905 70.5677 232.405 70.3055 232.579 69.8262Z" fill="#1C355E"/>
<path d="M371.29 94.5166H218.295C215.366 94.5166 212.992 96.6992 212.992 99.3916V190.594C212.992 193.286 215.366 195.469 218.295 195.469H371.29C374.219 195.469 376.593 193.286 376.593 190.594V99.3916C376.593 96.6992 374.219 94.5166 371.29 94.5166Z" fill="#011E41" stroke="#1C355E" stroke-width="2.08143"/>
<path fill-rule="evenodd" clip-rule="evenodd" d="M201.716 195.667V199.734C201.716 202.087 203.795 204 206.354 204H383.231C385.788 204 387.869 202.088 387.869 199.734V195.667C387.869 195.557 387.773 195.469 387.649 195.469H201.936C201.811 195.469 201.716 195.557 201.716 195.667Z" fill="#011E41" stroke="#1C355E" stroke-width="2.08143"/>
<path fill-rule="evenodd" clip-rule="evenodd" d="M307.018 195.56L282.257 195.56C283.245 197.959 285.766 199.622 288.658 199.622H300.617C303.51 199.622 306.03 197.959 307.018 195.56Z" fill="#011E41" stroke="#1C355E" stroke-width="2.08143"/>
<path d="M367.4 104.063H222.055C221.078 104.063 220.287 104.791 220.287 105.688V184.469C220.287 185.367 221.078 186.094 222.055 186.094H367.4C368.376 186.094 369.167 185.367 369.167 184.469V105.688C369.167 104.791 368.376 104.063 367.4 104.063Z" fill="#E6ECF8" stroke="#1C355E" stroke-width="2.08143"/>
<path d="M354.111 136.281V151.516" stroke="#3D7DCA" stroke-width="2.08143" stroke-linecap="square"/>
<path d="M354.111 155.799V171.033" stroke="#3D7DCA" stroke-width="2.08143" stroke-linecap="square"/>
<path d="M356.37 134.035C356.37 135.066 355.447 135.972 354.217 135.972C352.987 135.972 352.064 135.066 352.064 134.035C352.064 133.004 352.987 132.097 354.217 132.097C355.447 132.097 356.37 133.004 356.37 134.035Z" fill="#3D7DCA" stroke="#3D7DCA"/>
<path d="M356.37 173.07C356.37 174.101 355.447 175.008 354.217 175.008C352.987 175.008 352.064 174.101 352.064 173.07C352.064 172.039 352.987 171.133 354.217 171.133C355.447 171.133 356.37 172.039 356.37 173.07Z" fill="#3D7DCA" stroke="#3D7DCA"/>
<path d="M248.829 123.79H240.424C238.959 123.79 237.772 124.882 237.772 126.228V133.946C237.772 135.293 238.959 136.384 240.424 136.384H248.829C250.294 136.384 251.481 135.293 251.481 133.946V126.228C251.481 124.882 250.294 123.79 248.829 123.79Z" fill="#E6ECF8" stroke="#3D7DCA" stroke-width="2.08143"/>
<path d="M248.829 142.071H240.423C238.959 142.071 237.772 143.163 237.772 144.509V152.227C237.772 153.574 238.959 154.665 240.423 154.665H248.829C250.293 154.665 251.48 153.574 251.48 152.227V144.509C251.48 143.163 250.293 142.071 248.829 142.071Z" fill="#E6ECF8" stroke="#3D7DCA" stroke-width="2.08143"/>
<path d="M248.829 160.352H240.423C238.959 160.352 237.772 161.444 237.772 162.79V170.508C237.772 171.855 238.959 172.946 240.423 172.946H248.829C250.293 172.946 251.48 171.855 251.48 170.508V162.79C251.48 161.444 250.293 160.352 248.829 160.352Z" fill="#FFDA27" stroke="#3D7DCA" stroke-width="2.08143"/>
<path d="M329.06 174.536C342.896 174.536 354.112 164.574 354.112 152.286C354.112 139.998 342.896 130.036 329.06 130.036C315.225 130.036 304.009 139.998 304.009 152.286C304.009 164.574 315.225 174.536 329.06 174.536Z" fill="#E6ECF8" stroke="#3D7DCA" stroke-width="2.08143"/>
<path fill-rule="evenodd" clip-rule="evenodd" d="M326.088 128.474V133.349H331.396V128.474H326.088Z" fill="#3D7DCA" stroke="#3D7DCA" stroke-width="2.08143"/>
<path fill-rule="evenodd" clip-rule="evenodd" d="M301.461 150.334V155.209H306.769V150.334H301.461Z" fill="#3D7DCA" stroke="#3D7DCA" stroke-width="2.08143"/>
<path fill-rule="evenodd" clip-rule="evenodd" d="M326.088 172.194V177.069H331.396V172.194H326.088Z" fill="#3D7DCA" stroke="#3D7DCA" stroke-width="2.08143"/>
<path fill-rule="evenodd" clip-rule="evenodd" d="M351.564 151.115V155.99H356.871V151.115H351.564Z" fill="#3D7DCA" stroke="#3D7DCA" stroke-width="2.08143"/>
<path d="M231.062 110.004C231.062 110.699 230.435 111.332 229.572 111.332C228.708 111.332 228.082 110.699 228.082 110.004C228.082 109.31 228.708 108.676 229.572 108.676C230.435 108.676 231.062 109.31 231.062 110.004Z" fill="#1C355E" stroke="#1C355E"/>
<path d="M237.694 110.004C237.694 110.699 237.068 111.332 236.205 111.332C235.341 111.332 234.715 110.699 234.715 110.004C234.715 109.31 235.341 108.676 236.205 108.676C237.068 108.676 237.694 109.31 237.694 110.004Z" fill="#1C355E" stroke="#1C355E"/>
<path d="M244.327 110.004C244.327 110.699 243.7 111.332 242.837 111.332C241.973 111.332 241.347 110.699 241.347 110.004C241.347 109.31 241.973 108.676 242.837 108.676C243.7 108.676 244.327 109.31 244.327 110.004Z" fill="#1C355E" stroke="#1C355E"/>
</svg>
